<?xml version="1.0" encoding="UTF-8"?>
<svg xmlns="http://www.w3.org/2000/svg" xmlns:xlink="http://www.w3.org/1999/xlink" width="854" height="480" viewBox="0 0 854 480">
<defs>
<g>
<g id="glyph-0-0">
<path d="M 7.15625 -6.351562 L 6.707031 -6.351562 C 6.625 -6.664062 6.449219 -7 6.1875 -7.359375 C 5.921875 -7.714844 5.667969 -7.914062 5.425781 -7.949219 C 5.300781 -7.964844 5.15625 -7.976562 4.988281 -7.984375 C 4.816406 -7.992188 4.625 -7.996094 4.410156 -7.996094 L 2.988281 -7.996094 L 2.988281 -4.59375 L 3.964844 -4.59375 C 4.261719 -4.59375 4.488281 -4.625 4.652344 -4.6875 C 4.816406 -4.75 4.957031 -4.84375 5.070312 -4.972656 C 5.152344 -5.058594 5.222656 -5.195312 5.289062 -5.378906 C 5.355469 -5.566406 5.398438 -5.761719 5.417969 -5.972656 L 5.867188 -5.972656 L 5.867188 -2.644531 L 5.417969 -2.644531 C 5.40625 -2.820312 5.367188 -3.019531 5.296875 -3.242188 C 5.226562 -3.464844 5.152344 -3.625 5.070312 -3.722656 C 4.953125 -3.871094 4.800781 -3.972656 4.621094 -4.027344 C 4.4375 -4.078125 4.21875 -4.105469 3.964844 -4.105469 L 2.988281 -4.105469 L 2.988281 -1.191406 C 2.988281 -1.0625 3.015625 -0.945312 3.066406 -0.839844 C 3.121094 -0.738281 3.210938 -0.652344 3.34375 -0.589844 C 3.402344 -0.5625 3.53125 -0.527344 3.730469 -0.488281 C 3.929688 -0.449219 4.082031 -0.425781 4.183594 -0.421875 L 4.183594 0 L 0.511719 0 L 0.511719 -0.421875 C 0.632812 -0.433594 0.792969 -0.445312 0.992188 -0.460938 C 1.191406 -0.480469 1.320312 -0.503906 1.378906 -0.53125 C 1.496094 -0.582031 1.585938 -0.660156 1.636719 -0.761719 C 1.691406 -0.863281 1.71875 -0.984375 1.71875 -1.128906 L 1.71875 -7.238281 C 1.71875 -7.371094 1.695312 -7.488281 1.652344 -7.589844 C 1.609375 -7.691406 1.519531 -7.773438 1.378906 -7.835938 C 1.269531 -7.886719 1.128906 -7.933594 0.945312 -7.972656 C 0.765625 -8.011719 0.621094 -8.035156 0.511719 -8.046875 L 0.511719 -8.46875 L 7.15625 -8.46875 Z "/>
</g>
<g id="glyph-0-1">
</g>
<g id="glyph-0-2">
<path d="M 6.941406 -4.078125 L 0.917969 -4.078125 L 0.917969 -4.820312 L 6.941406 -4.820312 L 6.941406 -4.078125 M 6.941406 -1.855469 L 0.917969 -1.855469 L 0.917969 -2.601562 L 6.941406 -2.601562 Z "/>
</g>
<g id="glyph-0-3">
<path d="M 10.496094 0 L 7.632812 0 L 7.632812 -0.394531 C 7.726562 -0.402344 7.816406 -0.410156 7.910156 -0.417969 C 8.003906 -0.425781 8.085938 -0.441406 8.160156 -0.464844 C 8.269531 -0.5 8.351562 -0.5625 8.40625 -0.652344 C 8.460938 -0.742188 8.488281 -0.859375 8.488281 -1.003906 L 8.488281 -4.039062 C 8.488281 -4.453125 8.390625 -4.773438 8.203125 -5 C 8.015625 -5.222656 7.777344 -5.335938 7.496094 -5.335938 C 7.300781 -5.335938 7.117188 -5.304688 6.945312 -5.246094 C 6.777344 -5.1875 6.617188 -5.101562 6.476562 -4.996094 C 6.359375 -4.90625 6.261719 -4.8125 6.1875 -4.710938 C 6.109375 -4.609375 6.050781 -4.527344 6.011719 -4.457031 L 6.011719 -1.0625 C 6.011719 -0.921875 6.035156 -0.808594 6.082031 -0.71875 C 6.128906 -0.628906 6.210938 -0.5625 6.328125 -0.511719 C 6.417969 -0.476562 6.5 -0.449219 6.574219 -0.433594 C 6.648438 -0.414062 6.742188 -0.402344 6.863281 -0.394531 L 6.863281 0 L 4.058594 0 L 4.058594 -0.394531 C 4.148438 -0.402344 4.238281 -0.410156 4.324219 -0.417969 C 4.410156 -0.425781 4.488281 -0.441406 4.558594 -0.464844 C 4.671875 -0.5 4.753906 -0.5625 4.808594 -0.652344 C 4.859375 -0.742188 4.886719 -0.859375 4.886719 -1.003906 L 4.886719 -4.039062 C 4.886719 -4.453125 4.792969 -4.773438 4.605469 -5 C 4.414062 -5.222656 4.179688 -5.335938 3.894531 -5.335938 C 3.699219 -5.335938 3.515625 -5.304688 3.34375 -5.242188 C 3.171875 -5.179688 3.015625 -5.097656 2.871094 -4.988281 C 2.757812 -4.902344 2.660156 -4.804688 2.578125 -4.695312 C 2.5 -4.585938 2.4375 -4.5 2.398438 -4.445312 L 2.398438 -1.074219 C 2.398438 -0.9375 2.425781 -0.824219 2.484375 -0.734375 C 2.539062 -0.640625 2.621094 -0.574219 2.734375 -0.523438 C 2.816406 -0.484375 2.902344 -0.457031 2.988281 -0.4375 C 3.078125 -0.414062 3.175781 -0.402344 3.28125 -0.394531 L 3.28125 0 L 0.421875 0 L 0.421875 -0.394531 C 0.515625 -0.402344 0.609375 -0.410156 0.707031 -0.417969 C 0.804688 -0.425781 0.890625 -0.441406 0.960938 -0.464844 C 1.074219 -0.5 1.15625 -0.5625 1.207031 -0.652344 C 1.261719 -0.742188 1.289062 -0.859375 1.289062 -1 L 1.289062 -4.65625 C 1.289062 -4.78125 1.261719 -4.898438 1.203125 -5 C 1.144531 -5.101562 1.0625 -5.1875 0.960938 -5.257812 C 0.886719 -5.304688 0.792969 -5.34375 0.679688 -5.375 C 0.570312 -5.402344 0.453125 -5.421875 0.335938 -5.429688 L 0.335938 -5.824219 L 2.304688 -5.957031 L 2.386719 -5.871094 L 2.386719 -5.03125 L 2.429688 -5.03125 C 2.527344 -5.128906 2.648438 -5.246094 2.792969 -5.382812 C 2.9375 -5.519531 3.070312 -5.628906 3.191406 -5.710938 C 3.332031 -5.808594 3.507812 -5.886719 3.714844 -5.949219 C 3.925781 -6.015625 4.148438 -6.046875 4.390625 -6.046875 C 4.773438 -6.046875 5.101562 -5.941406 5.378906 -5.738281 C 5.652344 -5.535156 5.847656 -5.285156 5.96875 -4.996094 C 6.109375 -5.132812 6.238281 -5.257812 6.347656 -5.363281 C 6.457031 -5.46875 6.601562 -5.582031 6.777344 -5.699219 C 6.929688 -5.804688 7.105469 -5.886719 7.3125 -5.949219 C 7.515625 -6.015625 7.742188 -6.046875 7.992188 -6.046875 C 8.492188 -6.046875 8.882812 -5.882812 9.171875 -5.554688 C 9.464844 -5.230469 9.609375 -4.730469 9.609375 -4.050781 L 9.609375 -1.0625 C 9.609375 -0.921875 9.632812 -0.808594 9.679688 -0.71875 C 9.726562 -0.628906 9.808594 -0.5625 9.925781 -0.511719 C 10.015625 -0.476562 10.105469 -0.449219 10.195312 -0.433594 C 10.285156 -0.414062 10.386719 -0.402344 10.496094 -0.394531 Z "/>
</g>
<g id="glyph-0-4">
<path d="M 5.265625 -6.558594 C 5.265625 -6.410156 5.222656 -6.304688 5.136719 -6.238281 C 5.054688 -6.167969 4.949219 -6.136719 4.816406 -6.136719 C 4.730469 -6.136719 4.519531 -6.179688 4.1875 -6.261719 C 3.855469 -6.347656 3.480469 -6.414062 3.066406 -6.464844 C 3.246094 -6.214844 3.414062 -6.011719 3.570312 -5.847656 C 3.722656 -5.679688 3.851562 -5.542969 3.957031 -5.429688 C 4.0625 -5.316406 4.148438 -5.214844 4.207031 -5.125 C 4.265625 -5.039062 4.296875 -4.945312 4.296875 -4.847656 C 4.296875 -4.738281 4.25 -4.644531 4.152344 -4.566406 C 4.058594 -4.484375 3.957031 -4.445312 3.847656 -4.445312 C 3.777344 -4.445312 3.710938 -4.46875 3.648438 -4.507812 C 3.582031 -4.550781 3.527344 -4.609375 3.484375 -4.683594 C 3.421875 -4.800781 3.359375 -4.984375 3.296875 -5.238281 C 3.234375 -5.496094 3.097656 -5.867188 2.886719 -6.363281 C 2.699219 -5.886719 2.5625 -5.511719 2.488281 -5.238281 C 2.414062 -4.960938 2.347656 -4.777344 2.292969 -4.683594 C 2.238281 -4.605469 2.1875 -4.546875 2.132812 -4.507812 C 2.078125 -4.464844 2.011719 -4.445312 1.925781 -4.445312 C 1.816406 -4.445312 1.714844 -4.484375 1.621094 -4.558594 C 1.527344 -4.636719 1.480469 -4.730469 1.480469 -4.847656 C 1.480469 -4.941406 1.507812 -5.03125 1.5625 -5.113281 C 1.621094 -5.199219 1.703125 -5.304688 1.820312 -5.429688 C 1.917969 -5.535156 2.050781 -5.675781 2.21875 -5.855469 C 2.382812 -6.035156 2.546875 -6.238281 2.710938 -6.464844 C 2.320312 -6.421875 1.957031 -6.359375 1.621094 -6.269531 C 1.285156 -6.179688 1.0625 -6.136719 0.960938 -6.136719 C 0.828125 -6.136719 0.722656 -6.167969 0.636719 -6.234375 C 0.554688 -6.300781 0.511719 -6.40625 0.511719 -6.558594 C 0.511719 -6.695312 0.554688 -6.796875 0.636719 -6.871094 C 0.722656 -6.945312 0.828125 -6.984375 0.960938 -6.984375 C 1.082031 -6.984375 1.289062 -6.941406 1.589844 -6.855469 C 1.890625 -6.773438 2.265625 -6.710938 2.710938 -6.667969 C 2.554688 -6.878906 2.390625 -7.078125 2.21875 -7.265625 C 2.050781 -7.457031 1.914062 -7.597656 1.820312 -7.699219 C 1.707031 -7.816406 1.625 -7.921875 1.566406 -8.007812 C 1.507812 -8.089844 1.480469 -8.183594 1.480469 -8.285156 C 1.480469 -8.390625 1.527344 -8.484375 1.625 -8.5625 C 1.71875 -8.644531 1.820312 -8.683594 1.925781 -8.683594 C 2 -8.683594 2.066406 -8.664062 2.128906 -8.625 C 2.1875 -8.585938 2.242188 -8.523438 2.292969 -8.445312 C 2.347656 -8.347656 2.421875 -8.136719 2.511719 -7.804688 C 2.605469 -7.472656 2.730469 -7.125 2.886719 -6.769531 C 3.066406 -7.171875 3.199219 -7.527344 3.28125 -7.832031 C 3.359375 -8.136719 3.429688 -8.339844 3.484375 -8.445312 C 3.527344 -8.519531 3.582031 -8.578125 3.644531 -8.621094 C 3.707031 -8.664062 3.773438 -8.683594 3.847656 -8.683594 C 3.960938 -8.683594 4.0625 -8.644531 4.15625 -8.570312 C 4.25 -8.496094 4.296875 -8.398438 4.296875 -8.285156 C 4.296875 -8.121094 4.1875 -7.929688 3.964844 -7.710938 C 3.746094 -7.492188 3.445312 -7.144531 3.066406 -6.667969 C 3.496094 -6.714844 3.871094 -6.777344 4.1875 -6.859375 C 4.503906 -6.941406 4.710938 -6.984375 4.816406 -6.984375 C 4.949219 -6.984375 5.054688 -6.945312 5.136719 -6.875 C 5.222656 -6.804688 5.265625 -6.699219 5.265625 -6.558594 Z "/>
</g>
<g id="glyph-0-5">
<path d="M 6.003906 -0.109375 C 5.816406 -0.0390625 5.652344 0.015625 5.511719 0.0585938 C 5.371094 0.0976562 5.210938 0.121094 5.03125 0.121094 C 4.722656 0.121094 4.472656 0.046875 4.289062 -0.0976562 C 4.101562 -0.242188 3.984375 -0.457031 3.933594 -0.734375 L 3.898438 -0.734375 C 3.636719 -0.449219 3.359375 -0.230469 3.066406 -0.078125 C 2.769531 0.0742188 2.410156 0.148438 1.992188 0.148438 C 1.550781 0.148438 1.1875 0.015625 0.902344 -0.257812 C 0.621094 -0.527344 0.476562 -0.882812 0.476562 -1.320312 C 0.476562 -1.546875 0.507812 -1.75 0.574219 -1.925781 C 0.636719 -2.105469 0.730469 -2.269531 0.859375 -2.410156 C 0.957031 -2.53125 1.089844 -2.636719 1.253906 -2.730469 C 1.417969 -2.824219 1.570312 -2.898438 1.710938 -2.953125 C 1.890625 -3.023438 2.253906 -3.148438 2.800781 -3.332031 C 3.347656 -3.511719 3.71875 -3.65625 3.910156 -3.761719 L 3.910156 -4.351562 C 3.910156 -4.402344 3.898438 -4.5 3.875 -4.648438 C 3.855469 -4.796875 3.808594 -4.9375 3.734375 -5.066406 C 3.65625 -5.214844 3.542969 -5.34375 3.398438 -5.453125 C 3.253906 -5.5625 3.046875 -5.617188 2.78125 -5.617188 C 2.597656 -5.617188 2.429688 -5.585938 2.269531 -5.523438 C 2.113281 -5.460938 2.003906 -5.398438 1.941406 -5.328125 C 1.941406 -5.25 1.957031 -5.132812 1.996094 -4.976562 C 2.035156 -4.820312 2.054688 -4.679688 2.054688 -4.546875 C 2.054688 -4.410156 1.992188 -4.28125 1.863281 -4.164062 C 1.738281 -4.050781 1.566406 -3.992188 1.34375 -3.992188 C 1.144531 -3.992188 0.996094 -4.0625 0.902344 -4.203125 C 0.8125 -4.347656 0.765625 -4.503906 0.765625 -4.679688 C 0.765625 -4.863281 0.828125 -5.035156 0.957031 -5.203125 C 1.085938 -5.371094 1.253906 -5.519531 1.460938 -5.652344 C 1.640625 -5.761719 1.859375 -5.859375 2.113281 -5.933594 C 2.367188 -6.011719 2.617188 -6.050781 2.859375 -6.050781 C 3.191406 -6.050781 3.484375 -6.027344 3.734375 -5.984375 C 3.980469 -5.9375 4.207031 -5.839844 4.410156 -5.6875 C 4.613281 -5.539062 4.765625 -5.339844 4.871094 -5.085938 C 4.976562 -4.835938 5.03125 -4.511719 5.03125 -4.113281 C 5.03125 -3.542969 5.023438 -3.039062 5.011719 -2.597656 C 5 -2.160156 4.996094 -1.679688 4.996094 -1.15625 C 4.996094 -1.003906 5.023438 -0.878906 5.074219 -0.789062 C 5.128906 -0.695312 5.210938 -0.617188 5.324219 -0.554688 C 5.382812 -0.519531 5.476562 -0.5 5.605469 -0.496094 C 5.738281 -0.492188 5.867188 -0.488281 6.003906 -0.488281 L 6.003906 -0.109375 M 3.921875 -3.257812 C 3.582031 -3.160156 3.285156 -3.0625 3.03125 -2.964844 C 2.777344 -2.871094 2.539062 -2.75 2.320312 -2.605469 C 2.121094 -2.472656 1.964844 -2.3125 1.851562 -2.125 C 1.734375 -1.941406 1.675781 -1.71875 1.675781 -1.464844 C 1.675781 -1.132812 1.761719 -0.890625 1.9375 -0.734375 C 2.109375 -0.578125 2.328125 -0.5 2.597656 -0.5 C 2.878906 -0.5 3.128906 -0.570312 3.34375 -0.707031 C 3.558594 -0.84375 3.738281 -1.007812 3.886719 -1.195312 Z "/>
</g>
</g>
</defs>
<g fill="rgb(100%, 100%, 100%)" fill-opacity="1">
<use xlink:href="#glyph-0-0" x="30" y="31.208008"/>
<use xlink:href="#glyph-0-1" x="37" y="31.208008"/>
<use xlink:href="#glyph-0-2" x="40" y="31.208008"/>
<use xlink:href="#glyph-0-1" x="48" y="31.208008"/>
<use xlink:href="#glyph-0-3" x="51" y="31.208008"/>
<use xlink:href="#glyph-0-1" x="62" y="31.208008"/>
<use xlink:href="#glyph-0-4" x="65" y="31.208008"/>
<use xlink:href="#glyph-0-1" x="71" y="31.208008"/>
<use xlink:href="#glyph-0-5" x="74" y="31.208008"/>
</g>
</svg>
