<?xml version="1.0" encoding="UTF-8"?>
<svg xmlns="http://www.w3.org/2000/svg" xmlns:xlink="http://www.w3.org/1999/xlink" width="854" height="480" viewBox="0 0 854 480">
<defs>
<g>
<g id="glyph-0-0">
<path d="M 4.554688 -4.039062 L 4.269531 -4.039062 C 4.214844 -4.242188 4.105469 -4.453125 3.9375 -4.683594 C 3.769531 -4.910156 3.605469 -5.035156 3.453125 -5.058594 C 3.375 -5.070312 3.28125 -5.074219 3.171875 -5.082031 C 3.066406 -5.085938 2.941406 -5.089844 2.804688 -5.089844 L 1.902344 -5.089844 L 1.902344 -2.925781 L 2.523438 -2.925781 C 2.710938 -2.925781 2.855469 -2.945312 2.960938 -2.984375 C 3.066406 -3.023438 3.152344 -3.082031 3.226562 -3.164062 C 3.277344 -3.21875 3.324219 -3.304688 3.367188 -3.421875 C 3.40625 -3.542969 3.433594 -3.667969 3.449219 -3.800781 L 3.734375 -3.800781 L 3.734375 -1.683594 L 3.449219 -1.683594 C 3.441406 -1.792969 3.414062 -1.921875 3.371094 -2.0625 C 3.324219 -2.203125 3.277344 -2.304688 3.226562 -2.371094 C 3.152344 -2.464844 3.054688 -2.527344 2.941406 -2.5625 C 2.824219 -2.59375 2.683594 -2.613281 2.523438 -2.613281 L 1.902344 -2.613281 L 1.902344 -0.757812 C 1.902344 -0.675781 1.917969 -0.601562 1.953125 -0.535156 C 1.984375 -0.46875 2.042969 -0.417969 2.125 -0.375 C 2.164062 -0.359375 2.246094 -0.335938 2.375 -0.3125 C 2.5 -0.285156 2.597656 -0.273438 2.660156 -0.269531 L 2.660156 0 L 0.328125 0 L 0.328125 -0.269531 C 0.402344 -0.273438 0.503906 -0.28125 0.628906 -0.292969 C 0.757812 -0.304688 0.839844 -0.320312 0.878906 -0.339844 C 0.953125 -0.371094 1.007812 -0.417969 1.042969 -0.484375 C 1.078125 -0.546875 1.09375 -0.625 1.09375 -0.71875 L 1.09375 -4.605469 C 1.09375 -4.691406 1.078125 -4.765625 1.050781 -4.828125 C 1.023438 -4.894531 0.964844 -4.945312 0.878906 -4.984375 C 0.808594 -5.019531 0.71875 -5.046875 0.601562 -5.074219 C 0.488281 -5.097656 0.394531 -5.113281 0.328125 -5.117188 L 0.328125 -5.390625 L 4.554688 -5.390625 Z "/>
</g>
</g>
</defs>
<g fill="rgb(98.823529%, 38.431373%, 33.333333%)" fill-opacity="1">
<use xlink:href="#glyph-0-0" x="30" y="27.131836"/>
</g>
</svg>
